<svg xmlns="http://www.w3.org/2000/svg" viewBox="0 0 216.6 175"><path d="M186.5 102.9L165.2 127l-3.2 29.5c-.3 2.9-2.8 5.2-5.8 5.2h-.6c-3.1-.4-5.4-3.2-5.1-6.4l3.1-28.3c.4-3.2 1.7-6.1 3.8-8.5L172 102l-9.2-36.7-6.4 19.2c-1 3.1-3 5.7-6 7.9l-15.5 9.8c-.6.4-2.1.8-3.3.9H83.1c-1.2-.1-2.7-.5-3.3-.9l-15.5-9.9c-3-2.2-4.9-4.8-6-7.9l-6.4-19.1-9.2 36.7 14.6 16.5c2.1 2.4 3.4 5.4 3.8 8.5l3.1 28.3c.2 1.6-.3 3.1-1.2 4.3-1 1.2-2.3 1.9-3.8 2.1h-.6c-3 0-5.4-2.2-5.8-5.2L49.5 127l-21.4-24.1c-3.3-3.8-4.6-8.9-3.5-13.8l5.6-24.5c1.1-4.9 4.5-9 9.2-11 4.4-1.9 9.4-1.6 13.5.8 6.1 3.6 10.7 9.3 12.9 16l3.9 11.7L82 89.8V53.3c0-.5.4-.9.9-.9h48.9c.5 0 .9.4.9.9v36.5l12.2-7.8 3.9-11.7c2.3-6.7 6.9-12.4 12.9-16 4.2-2.4 9.1-2.7 13.6-.8 4.6 2 8 6.1 9.1 11L190 89c1.1 5-.2 10.1-3.5 13.9z" fill="#d6e4ff"/><path d="M48.7 42.6c10.3 0 18.6-8.4 18.6-18.6S59 5.4 48.7 5.4 30.1 13.7 30.1 24s8.3 18.6 18.6 18.6zm0-29.3c5.9 0 10.7 4.8 10.7 10.7s-4.8 10.7-10.7 10.7S38 29.9 38 24s4.8-10.7 10.7-10.7zM166 42.6c10.3 0 18.6-8.4 18.6-18.6S176.2 5.4 166 5.4s-18.6 8.4-18.6 18.6 8.3 18.6 18.6 18.6zm0-29.3c5.9 0 10.7 4.8 10.7 10.7s-4.8 10.7-10.7 10.7-10.7-4.8-10.7-10.7 4.8-10.7 10.7-10.7zm42 137.5l-15.8-39.6-17.6 19.9-.9 7.8 8.8 22.1c2.1 5.2 7.1 8.6 12.8 8.6 1.8 0 3.5-.3 5.1-1 7-2.8 10.4-10.8 7.6-17.8zm-10.6 10.5c-.7.3-1.4.4-2.1.4-2.4 0-4.5-1.4-5.4-3.6l-8.1-20.2.4-3.3 7.5-8.4 11 27.6c1.1 2.9-.3 6.3-3.3 7.5zm.4-74l-5.6-24.5c-1.7-7.3-6.8-13.5-13.7-16.5-6.8-2.9-14.3-2.5-20.7 1.2-7.7 4.6-13.6 11.8-16.4 20.3l-.6 1.8V53.3c0-4.9-4-8.9-8.8-8.9H82.9c-4.9 0-8.9 4-8.9 8.9v16.5l-.6-1.9c-2.8-8.5-8.7-15.7-16.5-20.3-6.4-3.7-13.9-4.1-20.7-1.2-6.9 3-12.1 9.1-13.8 16.5l-5.6 24.5c-1.7 7.4.3 15.2 5.3 20.8l19.7 22.2 2.9 27c.8 7 6.6 12.2 13.6 12.2.4 0 .9 0 1.3-.1h.2c3.7-.4 6.9-2.2 9.2-5.1 2.3-2.9 3.3-6.4 2.9-10.1L69 126c-.6-4.8-2.5-9.2-5.7-12.9L51.5 99.8l1.9-7.6c1.6 2.5 3.7 4.7 6.3 6.6l15.8 10.1c2.1 1.3 5 2 7.1 2.1h49.5c2-.2 5-.8 7.1-2.1l15.6-9.9.2-.1c2.6-1.9 4.8-4.1 6.3-6.5l1.9 7.6-11.8 13.4c-3.2 3.6-5.2 8.1-5.7 12.9l-3.1 28.3c-.8 7.5 4.6 14.3 12.2 15.1h.2c.4 0 .8.1 1.3.1 7 0 12.9-5.3 13.7-12.2l2.9-27 19.7-22.2c4.9-6 6.8-13.7 5.2-21.1zm-11.3 15.6L165.2 127l-3.2 29.5c-.3 2.9-2.8 5.2-5.8 5.2h-.6c-3.1-.4-5.4-3.2-5.1-6.4l3.1-28.3c.4-3.2 1.7-6.1 3.8-8.5L172 102l-9.2-36.7-6.4 19.2c-1 3.1-3 5.7-6 7.9l-15.5 9.8c-.6.4-2.1.8-3.3.9H83.1c-1.2-.1-2.7-.5-3.3-.9l-15.5-9.9c-3-2.2-4.9-4.8-6-7.9l-6.4-19.1-9.2 36.7 14.6 16.5c2.1 2.4 3.4 5.4 3.8 8.5l3.1 28.3c.2 1.6-.3 3.1-1.2 4.3-1 1.2-2.3 1.9-3.8 2.1h-.6c-3 0-5.4-2.2-5.8-5.2L49.5 127l-21.4-24.1c-3.3-3.8-4.6-8.9-3.5-13.8l5.6-24.5c1.1-4.9 4.5-9 9.2-11 4.4-1.9 9.4-1.6 13.5.8 6.1 3.6 10.7 9.3 12.9 16l3.9 11.7L82 89.8V53.3c0-.5.4-.9.9-.9h48.9c.5 0 .9.4.9.9v36.5l12.2-7.8 3.9-11.7c2.3-6.7 6.9-12.4 12.9-16 4.2-2.4 9.1-2.7 13.6-.8 4.6 2 8 6.1 9.1 11L190 89c1.1 5-.2 10.1-3.5 13.9zm-164 8.3L6.6 150.8c-1.4 3.4-1.3 7.1.1 10.5 1.4 3.4 4.1 6 7.5 7.4 1.6.6 3.3 1 5 1 5.5 0 10.7-3.3 12.8-8.6l9-22.1-.9-7.8-17.6-20zm2.3 46.8c-1.2 3-4.5 4.4-7.5 3.2-1.4-.6-2.6-1.7-3.2-3.1-.6-1.4-.6-3 0-4.4l11-27.6 7.5 8.4.4 3.3-8.2 20.2z" fill="#36f"/><path d="M200.7 153.7l-11.1-27.6-7.5 8.4-.4 3.3 8.1 20.2c.9 2.2 3 3.6 5.4 3.6.8 0 1.5-.1 2.1-.4 3.1-1.1 4.5-4.5 3.4-7.5zM25 126.1l-11 27.6c-.6 1.4-.6 3 0 4.4.6 1.4 1.7 2.5 3.2 3.1 3 1.2 6.3-.2 7.5-3.2l8.1-20.2-.4-3.3-7.4-8.4zm84.3-55.7h3.3v13.7c0 .4.3.7.7.7h3.9c.4 0 .7-.3.7-.7V70.4h3.3c.3 0 .5-.2.6-.4.1-.2.1-.5-.1-.7l-5.9-6.5c-.3-.3-.7-.3-1 0l-5.9 6.5c-.2.2-.2.5-.1.7 0 .3.2.4.5.4zm13 17.7h-30c-.4 0-.7.3-.7.7v3.9c0 .4.3.7.7.7h30c.4 0 .7-.3.7-.7v-3.9c0-.4-.3-.7-.7-.7zM93.6 70.4h3.3v13.7c0 .4.3.7.7.7h3.9c.4 0 .7-.3.7-.7V70.4h3.3c.3 0 .5-.2.6-.4.1-.2.1-.5-.1-.7l-5.9-6.5c-.3-.3-.7-.3-1 0l-5.9 6.5c-.2.2-.2.5-.1.7 0 .3.2.4.5.4z" fill="#84a9ff"/></svg>