<svg xmlns="http://www.w3.org/2000/svg" width="216.6" height="175"><path d="M45.9 39.7A19.9 19.9 0 1026 19.8a19.9 19.9 0 0019.9 19.9zm0-31.3a11.4 11.4 0 110 22.8 11.4 11.4 0 010-22.8zm124.9 31.3a19.9 19.9 0 10-19.9-19.9 19.9 19.9 0 0019.9 19.9zm0-31.3a11.4 11.4 0 11-11.4 11.4 11.5 11.5 0 0111.4-11.4zm44.8 146.5l-16.9-42.1-18.8 21.2-.9 8.3 9.4 23.5a14.7 14.7 0 0027.2-10.9zm-11.3 11.2a5.9 5.9 0 01-2.3.5 6.2 6.2 0 01-5.7-3.9l-8.6-21.6.3-3.5 8-9 11.8 29.5a6.2 6.2 0 01-3.5 8zm.4-78.8l-6.1-26.1A25.1 25.1 0 00184 43.7a24 24 0 00-22.1 1.3 39.9 39.9 0 00-17.5 21.6l-.6 2V51.1a9.6 9.6 0 00-9.5-9.5h-52a9.5 9.5 0 00-9.4 9.5v17.6l-.7-2.1A39.7 39.7 0 0054.7 45a24.3 24.3 0 00-22.1-1.3A25.1 25.1 0 0018 61.2l-6 26.1a25.2 25.2 0 005.6 22.2l21 23.7 3.1 28.8a14.7 14.7 0 0014.6 13h1.6a14.1 14.1 0 009.8-5.4 14.6 14.6 0 003.1-10.7l-3.3-30.2a24.9 24.9 0 00-6.1-13.7l-12.6-14.3 2-8.1a28.2 28.2 0 006.8 7l16.9 10.7a18.1 18.1 0 007.5 2.3h52.7a18.5 18.5 0 007.5-2.3l16.6-10.5.3-.2a27.6 27.6 0 006.7-7l2 8.1-12.6 14.3a24.9 24.9 0 00-6.1 13.7l-3.3 30.2a14.7 14.7 0 0013 16.1h1.6a14.6 14.6 0 0014.5-13l3.2-28.8 20.9-23.7a25.1 25.1 0 005.7-22.2zm-12 16.6l-22.8 25.7-3.4 31.4a6.2 6.2 0 01-6.1 5.6h-.8a6.2 6.2 0 01-5.4-6.8l3.3-30.2a16.2 16.2 0 014.1-9l15.5-17.7-9.8-39-6.8 20.4a16.9 16.9 0 01-6.3 8.4l-16.5 10.5a13.4 13.4 0 01-3.5 1H82.5a11.4 11.4 0 01-3.5-1L62.5 92.7a16.6 16.6 0 01-6.4-8.5l-6.8-20.3-9.8 39 15.6 17.6a16 16 0 014 9.1l3.3 30.2a6 6 0 01-1.3 4.5 6.1 6.1 0 01-4.1 2.3h-.7a6.3 6.3 0 01-6.2-5.6l-3.4-31.4L24 103.9a16.5 16.5 0 01-3.8-14.7l6-26.1A16.8 16.8 0 0136 51.4a15.9 15.9 0 0114.4.9 31.4 31.4 0 0113.8 17l4.1 12.4 13 8.3V51.1a1 1 0 011-1h52a.9.9 0 011 1V90l13-8.3 4.1-12.4a31.4 31.4 0 0113.8-17 16.1 16.1 0 0114.5-.9 16.9 16.9 0 019.7 11.7l6 26.1a16.7 16.7 0 01-3.7 14.7zm-174.8 8.9L1.1 154.9a14.1 14.1 0 00.1 11.2 14.7 14.7 0 008 7.9 17.1 17.1 0 005.4 1 14.7 14.7 0 0013.6-9.2l9.4-23.5-.9-8.3zm2.5 49.9a6.2 6.2 0 01-8.1 3.4 6.4 6.4 0 01-3.4-3.3 6.4 6.4 0 010-4.7l11.8-29.5 7.9 9 .4 3.5z" fill="#fff"/><path d="M110.4 69.3h3.5v14.6a.7.7 0 00.7.7h4.2a.8.8 0 00.7-.7V69.3h3.4a.8.8 0 00.7-.4 1.1 1.1 0 00-.1-.8l-6.3-6.9a.7.7 0 00-1 0l-6.3 6.9a.8.8 0 00-.1.8.7.7 0 00.6.4zm13.9 18.8h-32a.7.7 0 00-.7.7V93a.7.7 0 00.7.7h32a.7.7 0 00.7-.7v-4.2a.7.7 0 00-.7-.7zM93.7 69.3h3.5v14.6a.7.7 0 00.7.7h4.2a.8.8 0 00.7-.7V69.3h3.4a.8.8 0 00.7-.4 1.1 1.1 0 00-.1-.8l-6.3-6.9a.7.7 0 00-1 0l-6.3 6.9a.8.8 0 00-.1.8.7.7 0 00.6.4z" fill="#fff"/></svg>