<svg xmlns="http://www.w3.org/2000/svg" width="256.4" height="175.2"><path d="M26.9 36h85.4v-9H26.9zm0 17.9h85.4v-9H26.9zm0 18h85.4v-9H26.9zm18 49.4a22.5 22.5 0 1022.4 22.4 22.3 22.3 0 00-22.4-22.4zm157.2 0a22.5 22.5 0 1022.4 22.4 22.3 22.3 0 00-22.4-22.4z" fill="#d6e4ff"/><path d="M247 89.8h-22.5a4.5 4.5 0 000 9H247v38.7a1.8 1.8 0 01-1.8 1.7h-12a31.1 31.1 0 00-31.1-26.9h-.5a31.5 31.5 0 00-31 26.9H76a31.3 31.3 0 00-28.2-26.8h-5.9a31.3 31.3 0 00-28.1 26.8h-3a1.8 1.8 0 01-1.8-1.7v-34.2h148.2V25.6c0-1.8 1.3-3.1 3.6-3.1h9.8v46.2a7.9 7.9 0 007.7 7.7H247z" fill="#84a9ff"/><path d="M44.9 134.8a9 9 0 109 8.9 8.9 8.9 0 00-9-8.9zm157.2 0a9 9 0 109 8.9 8.9 8.9 0 00-9-8.9zm50.3-73.2l-39.1-43.2a16.2 16.2 0 00-11.2-4.9h-41.3c-7.2 0-12.6 5.4-12.6 12.1v68.7h-27V80.9h13.5a4.5 4.5 0 000-9h-13.5v-9h13.5a4.5 4.5 0 000-9h-13.5v-9h13.5a4.3 4.3 0 004.5-4.5 4.2 4.2 0 00-4.5-4.4h-13.5v-9h13.5a4.5 4.5 0 000-9h-13.5V4.5a4.5 4.5 0 10-8.9 0V18H26.9V4.5a4.5 4.5 0 10-9 0V18H4.5a4.5 4.5 0 100 9h13.4v9H4.5A4.2 4.2 0 000 40.4a4.3 4.3 0 004.5 4.5h13.4v9H4.5a4.5 4.5 0 000 9h13.4v9H4.5a4.5 4.5 0 000 9h13.4v13.4H0v43.2a10.9 10.9 0 0010.8 10.7h3a31.4 31.4 0 0062.2 0h95a31.4 31.4 0 0062.2 0h12a11.5 11.5 0 0011.2-10.3v-66a13.9 13.9 0 00-4-10.3zm-72.8-39.1h22.5a9.9 9.9 0 014.5 1.8l38.6 43.1h-65.6zM26.9 27h85.4v9H26.9zm0 17.9h85.4v9H26.9zm0 18h85.4v9H26.9zm0 18h85.4v13.4H26.9zm18 85.3a22.5 22.5 0 1122.4-22.5 22.3 22.3 0 01-22.4 22.5zm157.2 0a22.5 22.5 0 1122.4-22.5 22.3 22.3 0 01-22.4 22.5zM247 89.8h-22.5a4.5 4.5 0 000 9H247v38.7a1.8 1.8 0 01-1.8 1.7h-12a31.1 31.1 0 00-31.1-26.9h-.5a31.5 31.5 0 00-31 26.9H76a31.3 31.3 0 00-28.2-26.8h-5.9a31.3 31.3 0 00-28.1 26.8h-3a1.8 1.8 0 01-1.8-1.7v-34.2h148.2V25.6c0-1.8 1.3-3.1 3.6-3.1h9.8v46.2a7.9 7.9 0 007.7 7.7H247z" fill="#36f"/></svg>