<svg xmlns="http://www.w3.org/2000/svg" width="255.6" height="192"><path d="M51.2 140.8a21.4 21.4 0 1021.3 21.3 21.1 21.1 0 00-21.3-21.3zM119.9 8.5H16.6a7.9 7.9 0 00-8.1 8.1v30.3h42.7a4.3 4.3 0 110 8.6H8.5v12.8h59.8a4.3 4.3 0 010 8.5H8.5v29.9H128V16.6a8.1 8.1 0 00-8.1-8.1zm84.9 132.3a21.4 21.4 0 1021.3 21.3 21.1 21.1 0 00-21.3-21.3z" fill="#84a9ff"/><path d="M8.5 153.6a4 4 0 004.3 4.3h8.8a29.7 29.7 0 0126.8-25.5H54a29.7 29.7 0 0126.8 25.5H128v-42.7H8.5zm170.7-46.9H247V90.9a5.1 5.1 0 00-5.1-5.1H224a9.2 9.2 0 01-7.3-3.5l-7.6-9.8h-44A11.4 11.4 0 01153.6 61V42.7h-17.1v115.2h38.7a29.7 29.7 0 0126.8-25.5h5.6a29.7 29.7 0 0126.8 25.5h7.5c3 0 5.1-2.6 5.1-5.6v-37.1h-67.8a4.3 4.3 0 110-8.5z" fill="#d6e4ff"/><path d="M51.2 153.6a8.5 8.5 0 00-8.5 8.5 8.5 8.5 0 1017 0 8.5 8.5 0 00-8.5-8.5zm153.6 0a8.5 8.5 0 00-8.5 8.5 8.5 8.5 0 1017 0 8.5 8.5 0 00-8.5-8.5zm50.8-.9V90.9a13.8 13.8 0 00-13.7-13.7H224l-.4-.4-3.4-4.3-24.8-31.1a18.7 18.7 0 00-14.9-7.3h-44V16.6A16.3 16.3 0 00120.3 0H16.6A16.4 16.4 0 000 16.6v137a12.5 12.5 0 0012.8 12.8h8.8a29.9 29.9 0 0059.2 0h94.4a29.9 29.9 0 0059.2 0h8c7.2 0 13.6-6.4 13.2-13.7zM51.2 183.5a21.4 21.4 0 1121.3-21.4 21.2 21.2 0 01-21.3 21.4zm76.8-25.6H80.8A29.7 29.7 0 0054 132.4h-5.6a29.7 29.7 0 00-26.8 25.5h-8.8a4 4 0 01-4.3-4.3v-38.4H128zm0-51.2H8.5V76.8h59.8a4.3 4.3 0 000-8.5H8.5V55.5h42.7a4.3 4.3 0 100-8.6H8.5V16.6a7.9 7.9 0 018.1-8.1h103.3a8.1 8.1 0 018.1 8.1zm34.1-64h18.4a10.5 10.5 0 018.5 3.8L203.1 64h-38a2.9 2.9 0 01-3-3zm42.7 140.8a21.4 21.4 0 1121.3-21.4 21.2 21.2 0 01-21.3 21.4zm42.2-76.8h-67.8a4.3 4.3 0 100 8.5H247v37.1c0 3-2.1 5.6-5.1 5.6h-7.5a29.7 29.7 0 00-26.8-25.5H202a29.7 29.7 0 00-26.8 25.5h-38.7V42.7h17.1V61a11.4 11.4 0 0011.5 11.5h44l7.6 9.8a9.2 9.2 0 007.3 3.5h17.9a5.1 5.1 0 015.1 5.1z" fill="#36f"/></svg>