<svg xmlns="http://www.w3.org/2000/svg" width="150" height="100"><path d="M72.8 17.2h1.8V8H8v84h66.6v-9.2h-2.3v-7.7c-9.4-.3-14.7-4.3-14.8-10.9a4.9 4.9 0 014.7-3.6c2.9 0 4.6 1.4 5.1 5.5l.6 4.4a19 19 0 004.4.5V54.4l-.9-.4c-8.8-3.5-13.7-7.7-13.7-15.7s5.5-13.1 15.1-14zM37.1 84.3c-2.3 0-4.5-1.2-7.2-3.4s-3.5-2.7-4.7-2.7-2.8 1.3-3.1 5.6l-4.5-.4c.1-7.8 3.4-10.5 7.9-10.5 2.3 0 4.5 1.1 7.2 3.3s3.5 2.7 4.7 2.7 2.8-1.3 3.1-5.6l4.5.5c-.1 7.7-3.6 10.5-7.9 10.5zm35.7-42.1V28.8a6.5 6.5 0 00-5 6.8c0 3.3 1.7 5 5 6.6z" fill="#d6e4ff"/><path d="M25.2 78.2c1.2 0 2 .5 4.7 2.7s4.9 3.4 7.2 3.4c4.3 0 7.8-2.8 7.9-10.5l-4.5-.5c-.3 4.3-1.5 5.6-3.1 5.6s-2-.5-4.7-2.7-4.9-3.3-7.2-3.3c-4.5 0-7.8 2.7-7.9 10.5l4.5.4c.3-4.3 1.5-5.6 3.1-5.6zm87.4-54.1c1.2 0 2 .5 4.7 2.7s4.9 3.3 7.2 3.3c4.3 0 7.8-2.7 7.9-10.5l-4.5-.4c-.3 4.3-1.5 5.6-3.1 5.6s-2-.5-4.7-2.7-4.9-3.4-7.2-3.4c-4.5 0-7.8 2.8-7.9 10.5l4.5.5c.3-4.3 1.5-5.6 3.1-5.6zM144 0H6a6 6 0 00-6 6v88a6 6 0 006 6h138a6 6 0 006-6V6a6 6 0 00-6-6zm-2 92H8V8h134zM67.9 70.5l-.6-4.4c-.5-4.1-2.2-5.5-5.1-5.5a4.9 4.9 0 00-4.7 3.6c.1 6.6 5.4 10.6 14.8 10.9v7.7h4.8v-7.9c9.7-1.2 15.4-7 15.4-14.4s-4-12.1-14.5-16.2l-.4-.2V28.3l2.3.2.6 3.8c.9 5.3 3.5 6.4 6.1 6.4a4.2 4.2 0 004.3-3.8c-.1-6-5.5-10-13.3-10.6v-7.1h-4.8v7.1c-9.6.9-15.1 6.7-15.1 14S62.6 50.5 71.4 54l.9.4V71a19 19 0 01-4.4-.5zm9.2-14.1c3.5 1.8 5 3.6 5 7.5a6.8 6.8 0 01-5 6.6zm-9.3-20.8a6.5 6.5 0 015-6.8v13.4c-3.3-1.6-5-3.3-5-6.6z" fill="#84a9ff"/></svg>