<svg version="1.1" id="Capa_1" xmlns="http://www.w3.org/2000/svg" x="0" y="0" viewBox="0 0 160.1 134" xml:space="preserve"><style>.st0{fill:#d6e4ff}.st1{fill:#36f}.st2{fill:#90d000}</style><path class="st0" d="M96.7 41.4V57.5c0 .1 0 .2-.1.2v.1s0 .1-.1.2v.1s0 .1-.1.1l-.1.1v.1l-.3.2-.1.1-.3.3-.1.1-.1.1-.1.1c-.1 0-.1.1-.2.1l-4.8 2.4c-.1 0-.2.1-.2.1H90c-.1 0-.2 0-.3.1h-1.1c-.1 0-.1 0-.2-.1l-3.5-1.8-3.5 1.7h-.1c-.1 0-.2.1-.2.1H79.6c-.1 0-.2-.1-.2-.1L75.8 60l-3.5 1.8c-.1 0-.2.1-.2.1H72c-.1 0-.2 0-.2.1H70.6c-.1 0-.2-.1-.2-.1l-4.9-2.4-.7-.5c-.1 0-.1-.1-.1-.1l-.1-.1-.1-.1-.3-.4c0-.1-.1-.1-.1-.2V58v-.1l-.1-.4V41.4H37.6v69.8h96.7V41.4H96.7zM55.5 94.1h-9.1c-.9 0-1.7-.8-1.7-1.7 0-.9.8-1.7 1.7-1.7h9.1c.9 0 1.7.8 1.7 1.7.1.9-.7 1.7-1.7 1.7zm6.9-6.9h-16c-.9 0-1.7-.8-1.7-1.7 0-.9.8-1.7 1.7-1.7h16c.9 0 1.7.8 1.7 1.7 0 1-.8 1.7-1.7 1.7zm50 15.9H109v-3.4h3.4v3.4zm13.7 0h-3.4v-3.4h3.4v3.4zM138.6 38.5zM95.3 58z"/><path class="st1" d="M80.9 60.8z"/><path class="st0" d="M75.1 55.3zM84.7 55.2zM85.3 55.3zM76.2 55.3z"/><path class="st1" d="M79.8 60.8z"/><path class="st0" d="M95.6 57.3zM123.4 17.1zM39.5 17z"/><path class="st2" d="M138.6 38.5zM95.3 58zM80.9 60.8zM75.1 55.3zM84.7 55.2zM85.3 55.3zM76.2 55.3zM79.8 60.8zM95.6 57.3zM121.6 18.9zM39.2 18.8z"/><path class="st1" d="M127.8 96.2H121c-.9 0-1.7.8-1.7 1.7v6.8c0 .9.8 1.7 1.7 1.7h6.8c.9 0 1.7-.8 1.7-1.7V98c0-1-.7-1.8-1.7-1.8zm-1.7 6.9h-3.4v-3.4h3.4v3.4zm-12-6.9h-6.8c-.9 0-1.7.8-1.7 1.7v6.8c0 .9.8 1.7 1.7 1.7h6.8c.9 0 1.7-.8 1.7-1.7V98c0-1-.7-1.8-1.7-1.8zm-1.7 6.9H109v-3.4h3.4v3.4z"/><path d="M62.4 83.8h-16c-.9 0-1.7.8-1.7 1.7 0 .9.8 1.7 1.7 1.7h16c.9 0 1.7-.8 1.7-1.7 0-.9-.8-1.7-1.7-1.7zm-6.9 6.8h-9.1c-.9 0-1.7.8-1.7 1.7 0 .9.8 1.7 1.7 1.7h9.1c.9 0 1.7-.8 1.7-1.7.1-.9-.7-1.7-1.7-1.7zm64.3-67.5H91L95.8 36H131l-11.2-12.9zM29.6 36h35.2l4.8-12.9H40.8L29.6 36z" fill="#84a9ff"/><path class="st1" d="M140 38.4V38.1 37.8c0-.1 0-.1-.1-.2v-.1c0-.1-.1-.2-.1-.2v-.1c0-.1-.1-.1-.1-.2v-.1c0-.1-.1-.1-.1-.2l-16-18.3-.1-.1-.1-.1-.1-.1-.4-.3-.1-.1-.1-.1s-.1 0-.1-.1l-.3-.1h-.1-.1l-.3-.1h-82H39.5 39.2l-.1.1s-.1 0-.1.1c-.1 0-.1 0-.1.1-.1 0-.1.1-.1.1s-.1.1-.2.1l-.2.2-.1.1-17 18.6-.1.1c0 .1-.1.1-.1.2v.1c0 .1-.1.1-.1.2s-.1.1-.1.3c0 .1-.1.2-.1.3 0 .1 0 .2-.1.2v75.8c0 .8.3 1.6.9 2.2.6.6 1.4.9 2.2.9h113.3c.8 0 1.6-.3 2.2-.9.6-.6.9-1.4.9-2.2V38.7l-.2-.3zm-20.2-15.3L131 36H95.8L91 23.1h28.8zM91.3 41.4v13.9l-1.9.9-3.8-1.8h-.5-.6-.2l-.5.2-3.5 1.7-3.4-1.7h-.1s-.1 0-.1-.1h-.1-.1l-.5-.1h-.2l-.5.1h-.2l-.3.1-3.4 1.7-1.9-.9v-14h21.8zm-16-18.3h9.9L90.1 36H70.5l4.8-12.9zm-34.5 0h28.7L64.7 36H29.6l11.2-12.9zm93.4 88.1H26.3V41.4h37.6v16.1l.1.4v.1l.1.1s0 .1.1.2l.3.4.1.1.1.1.1.1.5.3 4.9 2.4c.1 0 .1 0 .2.1h1.2c.1 0 .2 0 .2-.1h.1c.1 0 .1 0 .2-.1l3.5-1.8 3.6 1.8c.1 0 .1 0 .2.1H80.9c.1 0 .1 0 .2-.1h.1l3.5-1.7 3.5 1.8c.1 0 .2.1.2.1h1.1c.1 0 .2 0 .3-.1h.1c.1 0 .1 0 .2-.1l4.8-2.4s.1 0 .2-.1l.1-.1.1-.1.1-.1.3-.3.1-.1.2-.2v-.1l.1-.1s0-.1.1-.1v-.1c0-.1 0-.1.1-.2v-.1s0-.1.1-.2V41.2H134v70z"/></svg>