<svg xmlns="http://www.w3.org/2000/svg" width="160.1" height="134"><path d="M102 32.7v21.4a.8.8 0 01-.1.3v.2h-.1c0 .1 0 .2-.1.2v.2a.1.1 0 00-.1.1v.2h-.1l-.2.3h-.1l-.4.4h-.6l-6.4 3.2h-2.7l-4.8-2.4-4.7 2.3h-2.8L74 56.7l-4.8 2.4h-2.7L60 55.9l-.6-.5h-.2v-.2a.1.1 0 01-.1-.1l-.4-.5v.4h-.1v-.2l-.2-.5V32.7H22.8v93.6h129.6V32.7zm-55.1 70.6H34.7a2.3 2.3 0 01-2.3-2.3 2.3 2.3 0 012.3-2.3h12.2a2.3 2.3 0 012.3 2.3 2.3 2.3 0 01-2.3 2.3zm9.2-9.2H34.7a2.3 2.3 0 010-4.6h21.4a2.3 2.3 0 010 4.6zm67.1 21.3h-4.6v-4.6h4.6zm18.3 0h-4.6v-4.6h4.6zM158.3 28.8zM100.2 54.9zM73.1 51.4zM85.9 51.2zM74.6 51.3z" fill="#d6e4ff"/><path fill="#36f" d="M79.4 58.7z"/><path fill="#d6e4ff" d="M100.6 54.1zM25.4 0z"/><path fill="#90d000" d="M158.3 28.8zM100.2 54.9zM73.1 51.4zM85.9 51.2zM74.6 51.3zM79.4 58.7zM100.6 54.1zM25 2.4z"/><path d="M143.8 106.2h-9.2a2.3 2.3 0 00-2.3 2.3v9.2a2.4 2.4 0 002.3 2.3h9.2a2.3 2.3 0 002.3-2.3v-9.2a2.3 2.3 0 00-2.3-2.3zm-2.3 9.2h-4.6v-4.6h4.6zm-16-9.2h-9.2a2.3 2.3 0 00-2.3 2.3v9.2a2.3 2.3 0 002.3 2.3h9.2a2.4 2.4 0 002.3-2.3v-9.2a2.3 2.3 0 00-2.3-2.3zm-2.3 9.2h-4.6v-4.6h4.6z" fill="#36f"/><path d="M56.1 89.5H34.7a2.3 2.3 0 000 4.6h21.4a2.3 2.3 0 000-4.6zm-9.2 9.2H34.7a2.3 2.3 0 00-2.3 2.3 2.3 2.3 0 002.3 2.3h12.2a2.3 2.3 0 002.3-2.3 2.3 2.3 0 00-2.3-2.3zM133 8.2H94.5l6.4 17.2h47.2zM12.1 25.4h47.2l6.4-17.2H27.2z" fill="#84a9ff"/><path d="M160.1 28.6v-.7c-.1 0-.1-.1-.1-.2h-.2v-.3h-.1c0-.1-.1-.2-.1-.3h-.1l-.2-.2-21.6-25h-.2c-.1-.1-.1-.2-.2-.2l-.4-.4c-.1 0-.2 0-.2-.1h-.4L136 1c-.1 0-.2 0-.2-.1H24a.1.1 0 00-.1.1h-.4l-.2.2-.3.2h-.2L1.1 26.3l-.2.2v.2H.8c-.1.1-.1.2-.2.4l-.2.3a.8.8 0 01-.1.4c0 .1-.1.2-.1.3v.3a.3.3 0 00-.1.2v101a4.5 4.5 0 001.2 2.9 4.2 4.2 0 002.9 1.2H156a3.8 3.8 0 002.9-1.2 4 4 0 001.2-2.9v-101zM133 8.2l15.1 17.2h-47.2L94.5 8.2zM94.8 32.7v18.6l-2.5 1.2-5.1-2.5h-1.7l-.8.2-4.6 2.3-4.6-2.3h-2.6l-.4.2-4.6 2.3-2.5-1.2V32.7zM73.4 8.2h13.4l6.4 17.2H67zm-46.2 0h38.5l-6.4 17.2H12.1zm125.2 118.1H7.8V32.7h50.3v21.4l.2.5v.2h.1v.3l.4.5a.1.1 0 00.1.1v.2h.2l.6.5 6.5 3.2h2.7l4.8-2.4 4.8 2.4h2.7l4.7-2.3 4.8 2.4h2.7l6.4-3.2h.6l.4-.4h.1l.2-.3h.1v-.2a.1.1 0 01.1-.1v-.2c.1 0 .1-.1.1-.2h.1v-.2a.8.8 0 00.1-.3V32.7H152z" fill="#36f"/></svg>