<svg xmlns="http://www.w3.org/2000/svg" width="160.1" height="134"><path fill="#fff" d="M158.3 28.8zM100.2 54.9zM73.1 51.4zM85.9 51.2zM74.6 51.3zM79.4 58.7zM100.6 54.1zM25.4 0zM158.3 28.8zM100.2 54.9zM73.1 51.4zM85.9 51.2zM74.6 51.3zM79.4 58.7zM100.6 54.1zM25 2.4zM143.8 106.2h-9.2a2.3 2.3 0 00-2.3 2.3v9.2a2.4 2.4 0 002.3 2.3h9.2a2.3 2.3 0 002.3-2.3v-9.2a2.3 2.3 0 00-2.3-2.3zm-2.3 9.2h-4.6v-4.6h4.6zm-16-9.2h-9.2a2.3 2.3 0 00-2.3 2.3v9.2a2.3 2.3 0 002.3 2.3h9.2a2.4 2.4 0 002.3-2.3v-9.2a2.3 2.3 0 00-2.3-2.3zm-2.3 9.2h-4.6v-4.6h4.6zM56.1 89.5H34.7a2.3 2.3 0 000 4.6h21.4a2.3 2.3 0 000-4.6zm-9.2 9.2H34.7a2.3 2.3 0 00-2.3 2.3 2.3 2.3 0 002.3 2.3h12.2a2.3 2.3 0 002.3-2.3 2.3 2.3 0 00-2.3-2.3z"/><path d="M160.1 28.6v-.7c-.1 0-.1-.1-.1-.2h-.2v-.3h-.1c0-.1-.1-.2-.1-.3h-.1l-.2-.2-21.6-25h-.2c-.1-.1-.1-.2-.2-.2l-.4-.4c-.1 0-.2 0-.2-.1h-.4L136 1c-.1 0-.2 0-.2-.1H24a.1.1 0 00-.1.1h-.4l-.2.2-.3.2h-.2L1.1 26.3l-.2.2v.2H.8c-.1.1-.1.2-.2.4l-.2.3a.8.8 0 01-.1.4c0 .1-.1.2-.1.3v.3a.3.3 0 00-.1.2v101a4.5 4.5 0 001.2 2.9 4.2 4.2 0 002.9 1.2H156a3.8 3.8 0 002.9-1.2 4 4 0 001.2-2.9v-101zM133 8.2l15.1 17.2h-47.2L94.5 8.2zM94.8 32.7v18.6l-2.5 1.2-5.1-2.5h-1.7l-.8.2-4.6 2.3-4.6-2.3h-2.6l-.4.2-4.6 2.3-2.5-1.2V32.7zM73.4 8.2h13.4l6.4 17.2H67zm-46.2 0h38.5l-6.4 17.2H12.1zm125.2 118.1H7.8V32.7h50.3v21.4l.2.5v.2h.1v.3l.4.5a.1.1 0 00.1.1v.2h.2l.6.5 6.5 3.2h2.7l4.8-2.4 4.8 2.4h2.7l4.7-2.3 4.8 2.4h2.7l6.4-3.2h.6l.4-.4h.1l.2-.3h.1v-.2a.1.1 0 01.1-.1v-.2c.1 0 .1-.1.1-.2h.1v-.2a.8.8 0 00.1-.3V32.7H152z" fill="#fff"/></svg>